<svg width="170" height="61" viewBox="0 0 170 61" fill="none" xmlns="http://www.w3.org/2000/svg">
<path d="M30.678 60.5629C47.1872 60.5629 60.5706 47.1795 60.5706 30.6703C60.5706 14.1611 47.1872 0.77771 30.678 0.77771C14.1688 0.77771 0.7854 14.1611 0.7854 30.6703C0.7854 47.1795 14.1688 60.5629 30.678 60.5629Z" fill="#DA3416"/>
<path d="M22.8212 10.476L5.72656 38.7726H22.8212L18.6473 60.7777L35.0667 28.6448H20.3966L22.8212 10.476Z" fill="white"/>
<path d="M41.0514 32.7573C45.1639 32.7573 48.1716 29.8417 48.1716 25.5757C48.1716 21.279 45.1332 18.2713 41.0514 18.2713H25.3071V10.476H41.0514C49.4606 10.476 55.6601 16.3992 55.6601 25.1767C55.6601 33.8621 49.4606 40.4606 41.0514 40.4606H33.5015L37.0923 32.7573H41.0514Z" fill="white"/>
<path d="M82.9747 14.1588C84.4478 14.9568 85.6141 16.0617 86.412 17.4734C87.21 18.8852 87.6397 20.5425 87.6397 22.3839C87.6397 24.2253 87.2407 25.8519 86.412 27.2944C85.6141 28.7368 84.4478 29.8417 82.944 30.609C81.4402 31.4069 79.7215 31.7752 77.7573 31.7752H70.6985V12.9619H77.7573C79.7829 12.9926 81.5016 13.3916 82.9747 14.1588ZM81.5323 26.4351C82.4837 25.4837 82.9747 24.1333 82.9747 22.4146C82.9747 20.6959 82.4837 19.3455 81.5323 18.3635C80.5808 17.412 79.2305 16.921 77.4811 16.921H75.3021V27.8468H77.4811C79.2305 27.8468 80.5808 27.3558 81.5323 26.4351Z" fill="black"/>
<path d="M99.8238 31.8058L95.8954 24.7163H94.8212V31.8058H90.2177V12.9926H97.921C99.3941 12.9926 100.683 13.2381 101.727 13.7598C102.77 14.2816 103.568 14.9874 104.059 15.8775C104.581 16.7675 104.826 17.7803 104.826 18.8851C104.826 20.1434 104.458 21.2483 103.752 22.2304C103.046 23.2125 102.003 23.9184 100.622 24.3174L104.949 31.7752H99.8238V31.8058ZM94.8212 21.4631H97.6754C98.5041 21.4631 99.1486 21.2483 99.5783 20.8493C100.008 20.4503 100.223 19.8672 100.223 19.1C100.223 18.3941 100.008 17.811 99.5783 17.412C99.1486 17.013 98.5348 16.7982 97.6754 16.7982H94.8212V21.4631Z" fill="black"/>
<path d="M111.732 30.7625C110.259 29.9338 109.092 28.7983 108.233 27.3251C107.374 25.852 106.944 24.1947 106.944 22.3533C106.944 20.5118 107.374 18.8545 108.233 17.3814C109.092 15.9083 110.259 14.7727 111.732 13.9441C113.205 13.1154 114.831 12.7164 116.611 12.7164C118.392 12.7164 119.987 13.1154 121.491 13.9441C122.964 14.7727 124.131 15.9083 124.99 17.3814C125.849 18.8545 126.248 20.5118 126.248 22.3533C126.248 24.1947 125.819 25.852 124.959 27.3251C124.1 28.7983 122.934 29.9338 121.461 30.7625C119.987 31.5911 118.392 31.9901 116.611 31.9901C114.831 31.9901 113.205 31.5911 111.732 30.7625ZM120.202 26.3123C121.092 25.2996 121.553 23.9799 121.553 22.3533C121.553 20.696 121.092 19.3763 120.202 18.3635C119.312 17.3814 118.085 16.8903 116.611 16.8903C115.108 16.8903 113.88 17.3814 112.99 18.3635C112.1 19.3456 111.64 20.6653 111.64 22.3533C111.64 24.0106 112.1 25.3302 112.99 26.343C113.88 27.3251 115.108 27.8162 116.611 27.8162C118.115 27.8162 119.312 27.3251 120.202 26.3123Z" fill="black"/>
<path d="M133.276 12.9926V24.256C133.276 25.3915 133.553 26.2509 134.105 26.8647C134.658 27.4785 135.486 27.7854 136.53 27.7854C137.573 27.7854 138.432 27.4785 138.985 26.8647C139.568 26.2509 139.844 25.3915 139.844 24.256V12.9926H144.417V24.2253C144.417 25.9133 144.049 27.325 143.343 28.4913C142.637 29.6575 141.655 30.5168 140.458 31.1307C139.261 31.7138 137.911 32.0207 136.438 32.0207C134.964 32.0207 133.614 31.7445 132.448 31.1613C131.282 30.5782 130.361 29.7189 129.686 28.522C129.01 27.3557 128.673 25.9133 128.673 24.256V13.0232H133.276V12.9926Z" fill="black"/>
<path d="M78.6166 38.8033V46.3225H77.389V41.1665L75.0872 46.3225H74.2585L71.9567 41.1665V46.3225H70.7291V38.8033H72.0488L74.6882 44.6959L77.3276 38.8033H78.6166Z" fill="#8A8A8A"/>
<path d="M84.1409 45.8928C83.5577 45.5552 83.0974 45.0949 82.7598 44.5117C82.4222 43.9286 82.238 43.2534 82.238 42.5169C82.238 41.7803 82.4222 41.1358 82.7598 40.5527C83.0974 39.9695 83.5577 39.5092 84.1409 39.1716C84.724 38.834 85.3685 38.6805 86.0744 38.6805C86.7802 38.6805 87.4247 38.834 88.0079 39.1716C88.591 39.5092 89.0513 39.9695 89.3889 40.5527C89.7265 41.1358 89.9107 41.811 89.9107 42.5169C89.9107 43.2534 89.7265 43.8979 89.3889 44.5117C89.0513 45.0949 88.591 45.5552 88.0079 45.8928C87.4247 46.2304 86.7802 46.3839 86.0744 46.3839C85.3685 46.3839 84.724 46.2304 84.1409 45.8928ZM87.394 44.9721C87.793 44.7573 88.0999 44.4197 88.3148 43.99C88.5296 43.5603 88.6524 43.0693 88.6524 42.5169C88.6524 41.9644 88.5296 41.4734 88.3148 41.0437C88.0999 40.614 87.793 40.3071 87.394 40.0923C86.9951 39.8775 86.5654 39.7547 86.0744 39.7547C85.5833 39.7547 85.123 39.8775 84.7547 40.0923C84.3557 40.3071 84.0488 40.6447 83.8339 41.0437C83.6191 41.4734 83.4964 41.9337 83.4964 42.5169C83.4964 43.0693 83.6191 43.5603 83.8339 43.99C84.0488 44.4197 84.3557 44.7266 84.7547 44.9721C85.1536 45.1869 85.5833 45.3097 86.0744 45.3097C86.5654 45.3097 86.9951 45.2176 87.394 44.9721Z" fill="#8A8A8A"/>
<path d="M98.5346 43.1C98.8109 43.4683 98.9643 43.8672 98.9643 44.2969C98.9643 44.6652 98.8722 45.0335 98.6574 45.3404C98.4426 45.6473 98.1664 45.8928 97.7981 46.077C97.4298 46.2611 97.0001 46.3532 96.4784 46.3532H93.4707V38.834H96.3249C96.8467 38.834 97.2763 38.9261 97.6446 39.0795C98.0129 39.233 98.2891 39.4785 98.4733 39.7854C98.6574 40.0923 98.7495 40.3992 98.7495 40.7675C98.7495 41.1972 98.6267 41.5654 98.4119 41.8417C98.1664 42.1179 97.8595 42.3327 97.4912 42.4862C97.9208 42.5475 98.2584 42.7317 98.5346 43.1ZM94.729 41.9644H96.2635C96.6625 41.9644 96.9694 41.8724 97.2149 41.6882C97.4298 41.5041 97.5525 41.2279 97.5525 40.8903C97.5525 40.5527 97.4298 40.2764 97.2149 40.0923C97.0001 39.9082 96.6625 39.8161 96.2635 39.8161H94.729V41.9644ZM97.3684 45.0028C97.6139 44.788 97.7367 44.5117 97.7367 44.1741C97.7367 43.8058 97.6139 43.5296 97.3684 43.2841C97.1229 43.0693 96.7853 42.9465 96.3556 42.9465H94.729V45.279H96.3863C96.7853 45.3097 97.1229 45.2176 97.3684 45.0028Z" fill="#8A8A8A"/>
<path d="M103.906 38.8033V46.3225H102.678V38.8033H103.906Z" fill="#8A8A8A"/>
<path d="M109.123 45.3098H111.67V46.2919H107.895V38.7727H109.123V45.3098Z" fill="#8A8A8A"/>
<path d="M116.305 39.8161V42.0258H118.913V43.0386H116.305V45.3404H119.22V46.3532H115.077V38.834H119.22V39.8468H116.305V39.8161Z" fill="#8A8A8A"/>
<path d="M129.409 46.1384C129.01 45.9542 128.704 45.7087 128.458 45.4018C128.212 45.0642 128.12 44.6959 128.12 44.2662H129.44C129.471 44.6038 129.594 44.8494 129.808 45.0642C130.023 45.279 130.361 45.3711 130.76 45.3711C131.189 45.3711 131.527 45.279 131.742 45.0642C131.987 44.8494 132.11 44.6038 132.11 44.2662C132.11 44.0207 132.049 43.8059 131.895 43.6524C131.742 43.499 131.558 43.3762 131.343 43.2841C131.128 43.1921 130.821 43.1 130.422 43.0079C129.931 42.8852 129.532 42.7317 129.225 42.609C128.918 42.4862 128.673 42.2714 128.427 41.9951C128.212 41.7189 128.09 41.3506 128.09 40.8596C128.09 40.4299 128.212 40.0616 128.427 39.724C128.642 39.3864 128.949 39.1409 129.348 38.9875C129.747 38.8033 130.177 38.7419 130.698 38.7419C131.435 38.7419 132.018 38.9261 132.478 39.2944C132.939 39.6627 133.215 40.1537 133.246 40.7982H131.895C131.865 40.522 131.742 40.2765 131.496 40.0923C131.251 39.9082 130.944 39.7854 130.545 39.7854C130.177 39.7854 129.9 39.8775 129.686 40.0616C129.471 40.2458 129.348 40.4913 129.348 40.8289C129.348 41.0744 129.409 41.2586 129.563 41.3813C129.716 41.5348 129.87 41.6575 130.085 41.7189C130.299 41.811 130.606 41.9031 130.975 41.9951C131.466 42.1179 131.865 42.2714 132.202 42.3941C132.509 42.5169 132.785 42.7317 133 43.0386C133.215 43.3148 133.338 43.7138 133.338 44.1742C133.338 44.5424 133.246 44.9107 133.031 45.2483C132.816 45.5859 132.54 45.8621 132.141 46.077C131.742 46.2918 131.282 46.3839 130.76 46.3839C130.269 46.3839 129.839 46.2918 129.409 46.1384Z" fill="#8A8A8A"/>
<path d="M142.085 38.8033V39.8161H140.09V46.3225H138.862V39.8161H136.837V38.8033H142.085Z" fill="#8A8A8A"/>
<path d="M147.179 45.8928C146.596 45.5552 146.136 45.0949 145.798 44.5117C145.46 43.9286 145.276 43.2534 145.276 42.5169C145.276 41.7803 145.46 41.1358 145.798 40.5527C146.136 39.9695 146.596 39.5092 147.179 39.1716C147.762 38.834 148.407 38.6805 149.113 38.6805C149.819 38.6805 150.463 38.834 151.046 39.1716C151.629 39.5092 152.09 39.9695 152.427 40.5527C152.765 41.1358 152.949 41.811 152.949 42.5169C152.949 43.2534 152.765 43.8979 152.427 44.5117C152.09 45.0949 151.629 45.5552 151.046 45.8928C150.463 46.2304 149.819 46.3839 149.113 46.3839C148.407 46.3839 147.762 46.2304 147.179 45.8928ZM150.463 44.9721C150.862 44.7573 151.169 44.4197 151.384 43.99C151.599 43.5603 151.721 43.0693 151.721 42.5169C151.721 41.9644 151.599 41.4734 151.384 41.0437C151.169 40.614 150.862 40.3071 150.463 40.0923C150.064 39.8775 149.634 39.7547 149.143 39.7547C148.652 39.7547 148.192 39.8775 147.824 40.0923C147.425 40.3071 147.118 40.6447 146.903 41.0437C146.688 41.4734 146.565 41.9337 146.565 42.5169C146.565 43.0693 146.688 43.5603 146.903 43.99C147.118 44.4197 147.425 44.7266 147.824 44.9721C148.223 45.1869 148.652 45.3097 149.143 45.3097C149.634 45.3097 150.064 45.2176 150.463 44.9721Z" fill="#8A8A8A"/>
<path d="M160.437 46.3225L158.719 43.3149H157.767V46.3225H156.54V38.8033H159.148C159.732 38.8033 160.223 38.8954 160.622 39.1103C161.021 39.3251 161.328 39.5706 161.512 39.9082C161.696 40.2458 161.819 40.6141 161.819 41.0438C161.819 41.5348 161.665 41.9645 161.389 42.3634C161.113 42.7624 160.652 43.0386 160.069 43.1921L161.941 46.2918H160.437V46.3225ZM157.767 42.3328H159.118C159.578 42.3328 159.916 42.21 160.161 41.9952C160.407 41.7496 160.499 41.4427 160.499 41.0745C160.499 40.7062 160.376 40.3686 160.161 40.1537C159.916 39.9389 159.578 39.8161 159.118 39.8161H157.767V42.3328Z" fill="#8A8A8A"/>
<path d="M166.975 39.8161V42.0258H169.583V43.0386H166.975V45.3404H169.89V46.3532H165.747V38.834H169.89V39.8468H166.975V39.8161Z" fill="#8A8A8A"/>
</svg>
