<svg width="15" height="15" viewBox="0 0 15 15" fill="none" xmlns="http://www.w3.org/2000/svg">
<path d="M7.41099 14.3258C11.0929 14.3258 14.0777 11.341 14.0777 7.6591C14.0777 3.9772 11.0929 0.992432 7.41099 0.992432C3.72909 0.992432 0.744324 3.9772 0.744324 7.6591C0.744324 11.341 3.72909 14.3258 7.41099 14.3258Z" stroke="#747474" stroke-width="1.3" stroke-linecap="round" stroke-linejoin="round"/>
<path d="M9.29763 9.54577C8.92458 9.91841 8.44942 10.1721 7.93222 10.2747C7.41501 10.3774 6.87899 10.3244 6.39189 10.1225C5.90479 9.92057 5.48849 9.57878 5.19561 9.14031C4.90272 8.70184 4.7464 8.18639 4.7464 7.6591C4.7464 7.13181 4.90272 6.61635 5.19561 6.17789C5.48849 5.73942 5.90479 5.39763 6.39189 5.1957C6.87899 4.99378 7.41501 4.9408 7.93222 5.04346C8.44942 5.14611 8.92458 5.39979 9.29763 5.77243" stroke="#747474" stroke-width="1.3" stroke-linecap="round" stroke-linejoin="round"/>
</svg>
