<svg width="33" height="33" viewBox="0 0 33 33" fill="none" xmlns="http://www.w3.org/2000/svg">
<path d="M28.1977 6.79424C27.5167 6.11291 26.7081 5.57244 25.8181 5.20369C24.9282 4.83494 23.9743 4.64514 23.011 4.64514C22.0477 4.64514 21.0938 4.83494 20.2039 5.20369C19.3139 5.57244 18.5053 6.11291 17.8243 6.79424L16.411 8.20758L14.9977 6.79424C13.6221 5.41865 11.7564 4.64585 9.81101 4.64585C7.86563 4.64585 5.99993 5.41865 4.62434 6.79424C3.24875 8.16983 2.47595 10.0355 2.47595 11.9809C2.47595 13.9263 3.24875 15.792 4.62434 17.1676L6.03767 18.5809L16.411 28.9542L26.7843 18.5809L28.1977 17.1676C28.879 16.4866 29.4195 15.678 29.7882 14.788C30.157 13.8981 30.3468 12.9442 30.3468 11.9809C30.3468 11.0176 30.157 10.0637 29.7882 9.17377C29.4195 8.28382 28.879 7.47525 28.1977 6.79424Z" stroke="#242424" stroke-width="2.5" stroke-linecap="round" stroke-linejoin="round"/>
</svg>
