<?xml version="1.0" encoding="iso-8859-1"?>
<!-- Uploaded to: SVG Repo, www.svgrepo.com, Generator: SVG Repo Mixer Tools -->
<svg version="1.1" id="Layer_1" xmlns="http://www.w3.org/2000/svg" xmlns:xlink="http://www.w3.org/1999/xlink" 
	 viewBox="0 0 512 512" xml:space="preserve">
<g>
	<rect x="53.992" y="215.137" style="fill:#C8CCCC;" width="32.76" height="27.805"/>
	<path style="fill:#C8CCCC;" d="M408.039,141.436v22.996c0,7.144,5.792,12.935,12.935,12.935h13.653
		c7.145,0,12.935-5.79,12.935-12.935v-22.996H408.039z"/>
</g>
<g>
	<path style="fill:#DBDDDD;" d="M89.883,147.715H79.507H34.976v59.967c0,4.116,3.337,7.453,7.453,7.453h55.894
		c4.115,0,7.45-3.336,7.45-7.453v-59.967H89.883z"/>
	<polyline style="fill:#DBDDDD;" points="477.024,81.787 477.024,46.581 378.576,46.581 378.576,141.436 477.024,141.436 
		477.024,105.858 	"/>
</g>
<g style="opacity:0.15;">
	<path style="fill:#231F20;" d="M60.548,207.681v-59.967H34.976v59.967c0,4.116,3.337,7.453,7.453,7.453H68
		C63.885,215.134,60.548,211.798,60.548,207.681z"/>
</g>
<g style="opacity:0.15;">
	<rect x="378.578" y="46.587" style="fill:#231F20;" width="25.572" height="94.855"/>
</g>
<path style="fill:#688787;" d="M100.795,147.715v-40.322c0-3.126-2.535-5.659-5.661-5.659H45.615c-3.125,0-5.659,2.533-5.659,5.659
	v40.322"/>
<g style="opacity:0.15;">
	<path style="fill:#231F20;" d="M71.234,101.734H45.615c-3.125,0-5.659,2.533-5.659,5.659v40.322h25.618v-40.322
		C65.575,104.266,68.109,101.734,71.234,101.734z"/>
</g>
<g>
	<path style="fill:#231F20;" d="M62.353,132.589h15.629c4.466,0,8.084-3.618,8.084-8.084c0-4.466-3.618-8.084-8.084-8.084H62.353
		c-4.466,0-8.084,3.618-8.084,8.084C54.269,128.97,57.887,132.589,62.353,132.589z"/>
	<path style="fill:#231F20;" d="M477.024,89.872c4.466,0,8.084-3.618,8.084-8.084V46.581c0-4.466-3.618-8.084-8.084-8.084h-14.192
		V8.084c0-4.466-3.618-8.084-8.084-8.084s-8.084,3.618-8.084,8.084v30.413h-37.726V8.084c0-4.466-3.618-8.084-8.084-8.084
		c-4.466,0-8.084,3.618-8.084,8.084v30.413h-14.194c-4.466,0-8.084,3.618-8.084,8.084v94.855c0,4.466,3.618,8.084,8.084,8.084
		h21.379v14.912c0,11.226,8.854,20.398,19.941,20.964v139.718c0,53.174-24.44,100.742-62.673,132.076
		c17.547-23.15,27.974-51.978,27.974-83.199c0-76.099-61.912-138.009-138.01-138.009S109.178,297.891,109.178,373.99
		c0,27.159,7.89,52.506,21.491,73.882C98.5,416.807,78.46,373.259,78.46,325.113v-74.09h8.294c4.466,0,8.084-3.618,8.084-8.084
		v-19.721h3.484c8.566,0,15.535-6.97,15.535-15.537v-59.967c0-3.365-2.056-6.246-4.979-7.464v-32.857
		c0-7.578-6.167-13.743-13.745-13.743H45.615c-7.578,0-13.743,6.166-13.743,13.743v32.856c-2.924,1.217-4.981,4.1-4.981,7.465
		v59.967c0,8.567,6.97,15.537,15.537,15.537h3.482v19.721c0,4.466,3.618,8.084,8.084,8.084h8.297v74.09
		c0,98.409,76.458,179.291,173.089,186.376c3.893,0.332,7.829,0.511,11.806,0.511c0.333,0,0.664-0.011,0.996-0.013
		c0.332,0.001,0.663,0.013,0.995,0.013c103.05,0,186.886-83.837,186.886-186.886V185.377c10.919-0.745,19.581-9.842,19.581-20.947
		v-14.912h21.379c4.466,0,8.084-3.618,8.084-8.084v-35.577c0-4.466-3.618-8.084-8.084-8.084c-4.466,0-8.084,3.618-8.084,8.084
		v27.494H447.56h-39.522h-21.379V54.665h82.28v27.122C468.94,86.253,472.559,89.872,477.024,89.872z M92.711,109.818v29.812h-44.67
		v-29.812H92.711z M43.06,155.799h54.63v51.251H86.754H53.995H43.06V155.799z M62.079,223.218h16.592v11.637H62.079V223.218z
		 M125.346,373.991c0-67.183,54.657-121.841,121.84-121.841c67.184,0,121.842,54.658,121.842,121.841
		c0,66.851-54.119,121.29-120.846,121.828c-3.885-0.023-7.738-0.171-11.558-0.451C174.369,489.997,125.346,437.614,125.346,373.991z
		 M439.477,149.52v14.912c0,2.674-2.176,4.851-4.851,4.851h-13.653c-2.674,0-4.851-2.176-4.851-4.851V149.52H439.477z"/>
</g>
</svg>