<?xml version="1.0" encoding="iso-8859-1"?>
<!-- Uploaded to: SVG Repo, www.svgrepo.com, Generator: SVG Repo Mixer Tools -->
<svg height="800px" width="800px" version="1.1" id="Layer_1" xmlns="http://www.w3.org/2000/svg" xmlns:xlink="http://www.w3.org/1999/xlink" 
	 viewBox="0 0 503.435 503.435" xml:space="preserve">
<g>
	<path style="fill:#ECF0F1;" d="M173.616,407.977v-26.147h-34.712v26.147v0.121c0,52.632,42.826,95.336,95.458,95.336l104.136-0.113
		c52.632,0,95.458-42.713,95.458-95.345V0h-34.712v407.977c0,33.497-27.249,60.633-60.746,60.633l-104.136,0.113
		c-33.497,0-60.746-27.136-60.746-60.624V407.977z"/>
	<path style="fill:#95A5A5;" d="M217.006,138.85H95.514V26.037c0-9.58,7.775-17.356,17.356-17.356h86.78
		c9.58,0,17.356,7.775,17.356,17.356V138.85z"/>
	<path style="fill:#ECF0F1;" d="M234.361,338.443H78.158c-4.79,0-8.678-3.879-8.678-8.678V147.528c0-4.799,3.888-8.678,8.678-8.678
		h156.203c4.79,0,8.678,3.879,8.678,8.678v182.237C243.039,334.564,239.152,338.443,234.361,338.443"/>
	<path style="fill:#95A5A5;" d="M182.294,381.943h-52.068c-4.79,0-8.678-3.879-8.678-8.678v-34.825h69.424v34.825
		C190.972,378.064,187.084,381.943,182.294,381.943"/>
	<polygon style="fill:#ECF0F1;" points="121.548,69.43 190.972,69.43 190.972,43.396 121.548,43.396 	"/>
</g>
</svg>